<?xml version="1.0" encoding="UTF-8"?>
<svg id="Capa_1" xmlns="http://www.w3.org/2000/svg" version="1.1" viewBox="0 0 31.88 32">
  <!-- Generator: Adobe Illustrator 29.4.0, SVG Export Plug-In . SVG Version: 2.1.0 Build 152)  -->
  <defs>
    <style>
      .st0 {
        fill: #e01584;
        stroke: #e01584;
        stroke-linecap: round;
        stroke-linejoin: round;
        stroke-width: .5px;
      }
    </style>
  </defs>
  <path class="st0" d="M20.55,3.43v-.17h-3.95v.03h-.23l.23.07v.08h.07c.27,0,.48.1.61.3.14.21.23.47.27.77.04.31.04.63,0,.92-.05.31-.1.56-.18.77l-5.37,12.61L6.74,6.21c-.05-.13-.1-.29-.17-.49-.05-.2-.1-.4-.13-.6-.04-.21-.07-.42-.07-.63,0-.2.03-.38.08-.53s.13-.27.23-.38c.1-.09.23-.13.42-.13h.07v-.09l.21-.05h-.21v-.03H.82v.03h-.31l.31.07v.08h.07c.18,0,.39.05.63.17.25.12.49.29.76.52.26.23.51.52.77.89.25.35.48.78.68,1.28l6.22,14.87v.04h3.05l-.74-1.8,5.56-13.1c.1-.25.25-.52.42-.83.18-.33.4-.64.65-.95.23-.3.51-.56.78-.77s.53-.31.81-.31h.07l.03-.03Z"/>
  <g>
    <path class="st0" d="M31.06,24.76c-.4,2.63-2.87,4.54-5.87,4.54h-7.9v-9.95h.03-.03v-6.24h6.15c2.33,0,2.92.83,3.32,1.69l.03.07h.48l-.56-2.24h-13.87v.48h.12c.65,0,.95.38.95,1.25v5.2h3.09l-.82.64c-.51.39-.92.79-1.24,1.21-.3.39-.49.81-.59,1.25-.1.49-.23,1.07-.39,1.69-.01.07-.04.12-.05.18v1.41c.23-.04.46-.14.68-.34.31-.26.6-.63.85-1.09l.18-.33.17.09v-.03l.83.48v.03l.08.05-.12.29c-.16.38-.36.78-.6,1.24-.25.46-.53.89-.86,1.29-.33.42-.7.77-1.11,1.04-.07.04-.13.08-.2.12-.14.36-.4.53-.83.53h-.12v.48h18.01l.73-5.08-.49-.07v.1h-.04Z"/>
    <path class="st0" d="M20.67,19.22v-.12h-.4v5.77h.4v-.12c0-2.81,0-4.36,1.62-4.36h6.82v-.48h-7.58c-.65,0-.84-.17-.84-.7h-.01Z"/>
    <rect class="st0" x="13.9" y="15.04" width="3.17" height="13.91"/>
  </g>
</svg>